<mxfile host="app.diagrams.net" modified="2024-04-10T12:46:57.562Z" agent="Mozilla/5.0 (Windows NT 10.0; Win64; x64) AppleWebKit/537.36 (KHTML, like Gecko) Chrome/123.0.0.0 Safari/537.36" version="24.2.1" etag="xPazLwnoqMxnkDSmTIcA" type="github">
  <diagram name="Page-1" id="f6CiWY72H1lKGqYI0KCZ">
    <mxGraphModel>
      <root>
        <mxCell id="0" />
        <mxCell id="1" parent="0" />
      </root>
    </mxGraphModel>
  </diagram>
</mxfile>
